<svg xmlns="http://www.w3.org/2000/svg" width="222.099" height="281.205" viewBox="0 0 222.099 281.205">
  <g id="colleague" transform="translate(-3.091 -0.412)">
    <path id="Trazado_13" data-name="Trazado 13" d="M60.41,20.32C68.87,9.66,82.21,4.53,95.19,1.95c9.85-.9,19.91-2.59,29.78-.63,2.02.22,4.05.15,6.08.32,10.23,2.01,20.66,4.92,29,11.48,11.53,8.44,18.28,22.66,18.31,36.88-.12,9.68-.02,19.36-.09,29.04.05,1.58-.17,3.34.95,4.63a22.71,22.71,0,0,1,4.33,13.28c-.06,7.68.08,15.36-.07,23.04a21.605,21.605,0,0,1-6.94,13.59c-2.27,2.24-5.94,3.39-6.7,6.85-4.18,11.91-10.84,22.7-18.2,32.87-.29,5.24.01,10.5-.12,15.75a14.047,14.047,0,0,0,8.18,13.41c21.1,10.65,42.52,20.74,62.84,32.85a6.211,6.211,0,0,1,2.65,2.67c-13.81,11.96-29.08,22.45-45.97,29.57a165.244,165.244,0,0,1-54.91,13.24c-4.34,1.27-8.9.63-13.35.79-4.37.31-8.51-1.45-12.88-1.2A167.919,167.919,0,0,1,39.89,263.4,178.84,178.84,0,0,1,3.96,239.01a2.179,2.179,0,0,1,.38-3.71c18.99-11.45,38.37-22.21,57.86-32.8,4.67-2.26,9.17-6.89,8.48-12.46-.14-6.01.26-12.04-.2-18.02a108.622,108.622,0,0,1-15.84-30.37c-.98-3.23-1.76-6.71-4.26-9.17a23.134,23.134,0,0,1-5.84-12.47c-.2-7.68-.02-15.37-.09-23.06-.21-5.21,2.22-10.04,4.99-14.3.61-9.83.11-19.78.23-29.65C49.12,41.29,52.74,29.29,60.41,20.32Z" fill="#c2c2c2"/>
  </g>
</svg>
