<?xml version="1.0" encoding="UTF-8" ?>
<!DOCTYPE svg PUBLIC "-//W3C//DTD SVG 1.1//EN" "http://www.w3.org/Graphics/SVG/1.1/DTD/svg11.dtd">
<svg width="379pt" height="65pt" viewBox="0 0 379 65" version="1.1" xmlns="http://www.w3.org/2000/svg">
<g id="#ed145bff">
<path fill="#ed145b" opacity="1.00" d=" M 134.88 1.84 C 138.67 -0.21 143.91 1.51 145.66 5.48 C 153.27 20.50 160.64 35.64 168.23 50.66 C 169.46 53.20 170.99 56.13 169.70 58.96 C 168.49 63.24 163.25 65.52 159.23 63.74 C 156.61 62.73 155.09 60.22 153.95 57.80 C 149.05 47.69 143.82 37.75 139.06 27.57 C 138.79 27.55 138.25 27.51 137.98 27.50 C 134.42 35.25 130.44 42.80 126.70 50.47 C 124.90 54.39 121.32 57.57 116.98 58.26 C 111.64 59.31 105.90 56.44 103.50 51.56 C 99.27 43.32 95.24 34.97 91.04 26.70 C 87.98 32.42 85.69 38.61 81.91 43.91 C 74.89 52.71 60.01 52.75 52.90 44.03 C 49.90 40.92 49.28 34.74 44.07 34.46 C 40.20 33.83 38.27 37.65 36.53 40.35 C 31.82 47.56 22.01 50.99 13.85 48.20 C 8.08 46.41 2.92 41.97 1.17 36.08 C -0.19 30.89 4.83 25.44 10.14 26.57 C 13.66 26.79 15.33 30.17 17.45 32.45 C 18.95 34.20 21.15 32.85 22.89 32.34 C 25.42 27.26 29.28 22.61 34.68 20.47 C 42.70 16.84 52.84 18.59 59.07 24.85 C 61.99 27.55 63.56 31.27 65.61 34.60 C 66.80 34.57 68.00 34.54 69.20 34.50 C 72.66 28.71 74.89 22.24 78.69 16.66 C 84.72 8.72 98.14 8.95 103.81 17.18 C 107.98 24.06 110.98 31.59 114.91 38.60 C 119.76 28.38 124.99 18.35 129.94 8.18 C 131.18 5.81 132.26 3.00 134.88 1.84 Z" />
<path fill="#ed145b" opacity="1.00" d=" M 291.12 36.45 C 292.25 36.47 293.39 36.49 294.54 36.52 C 294.54 37.75 294.53 38.99 294.52 40.23 C 293.40 40.24 292.29 40.26 291.17 40.27 C 291.14 39.00 291.12 37.72 291.12 36.45 Z" />
<path fill="#ed145b" opacity="1.00" d=" M 203.90 36.49 C 204.80 36.47 206.60 36.43 207.51 36.40 C 210.94 45.44 214.26 54.55 217.12 63.79 C 215.95 63.88 214.77 63.95 213.60 64.00 C 212.61 61.41 211.70 58.79 210.81 56.17 C 207.45 56.10 204.08 56.11 200.72 56.11 C 199.83 58.69 198.90 61.26 197.97 63.82 C 197.07 63.89 195.28 64.01 194.39 64.08 C 197.08 54.73 200.69 45.67 203.90 36.49 M 201.64 53.16 C 204.36 53.16 207.09 53.16 209.82 53.15 C 208.35 48.94 206.85 44.73 205.86 40.37 C 204.61 44.68 203.14 48.93 201.64 53.16 Z" />
<path fill="#ed145b" opacity="1.00" d=" M 223.78 36.62 C 224.71 36.58 226.56 36.50 227.49 36.46 C 227.68 45.61 227.62 54.76 227.52 63.91 C 226.26 63.86 225.01 63.80 223.76 63.73 C 223.76 54.69 223.73 45.65 223.78 36.62 Z" />
<path fill="#ed145b" opacity="1.00" d=" M 237.69 36.56 C 242.10 36.57 246.68 35.89 250.97 37.06 C 256.97 39.86 256.54 49.29 250.90 52.31 C 252.71 56.25 254.97 59.97 256.56 64.01 C 255.64 63.99 253.78 63.95 252.85 63.93 C 250.87 60.37 248.95 56.78 247.08 53.16 C 245.19 53.16 243.30 53.16 241.42 53.17 C 241.43 56.75 241.46 60.34 241.36 63.93 C 240.44 63.90 238.60 63.83 237.68 63.80 C 237.62 54.72 237.60 45.64 237.69 36.56 M 241.46 39.52 C 241.42 43.08 241.41 46.65 241.48 50.22 C 244.03 50.17 246.62 50.21 249.10 49.50 C 252.82 47.53 252.37 40.85 248.16 39.76 C 245.93 39.47 243.69 39.56 241.46 39.52 Z" />
<path fill="#ed145b" opacity="1.00" d=" M 264.21 63.71 C 264.32 54.69 263.79 45.63 264.46 36.64 C 265.27 36.56 266.88 36.41 267.69 36.33 C 267.89 40.26 267.88 44.19 267.71 48.12 C 270.47 44.00 277.75 42.43 280.30 47.53 C 281.69 52.85 280.85 58.50 280.84 63.94 C 279.68 63.92 278.52 63.88 277.37 63.84 C 277.02 58.97 277.88 53.97 276.82 49.18 C 275.43 46.28 271.33 47.50 269.67 49.52 C 266.49 53.73 268.38 59.30 267.66 64.14 C 266.80 64.03 265.07 63.82 264.21 63.71 Z" />
<path fill="#ed145b" opacity="1.00" d=" M 303.40 39.35 C 304.48 39.40 305.56 39.46 306.65 39.52 C 306.72 41.40 306.75 43.27 306.78 45.15 C 308.49 45.59 311.68 44.44 311.47 47.28 C 310.36 48.75 308.30 48.05 306.75 48.37 C 306.77 51.78 306.80 55.18 306.66 58.58 C 308.11 59.98 309.93 60.83 311.81 61.50 C 311.73 62.13 311.56 63.40 311.48 64.03 C 308.65 64.06 305.40 63.50 303.89 60.78 C 302.33 56.85 302.86 52.53 303.18 48.43 C 302.48 48.35 301.08 48.18 300.38 48.09 C 300.29 46.26 301.18 45.12 303.00 44.83 C 303.12 43.00 303.24 41.17 303.40 39.35 Z" />
<path fill="#ed145b" opacity="1.00" d=" M 367.56 39.50 C 368.65 39.46 369.74 39.43 370.83 39.40 C 370.94 41.35 371.01 43.30 371.07 45.25 C 372.53 45.29 374.00 45.32 375.47 45.37 C 375.44 46.32 375.41 47.27 375.39 48.22 C 373.93 48.23 372.47 48.24 371.02 48.26 C 371.08 51.50 370.85 54.77 371.20 58.01 C 371.47 60.40 374.32 60.57 376.05 61.39 C 375.96 62.08 375.80 63.44 375.71 64.13 C 372.73 64.01 369.04 63.31 367.91 60.10 C 366.77 56.31 367.55 52.24 367.37 48.35 C 366.65 48.27 365.22 48.11 364.51 48.03 C 364.73 46.36 365.51 45.10 367.28 44.83 C 367.35 43.05 367.43 41.27 367.56 39.50 Z" />
<path fill="#ed145b" opacity="1.00" d=" M 344.44 47.32 C 348.27 43.23 354.75 43.68 359.02 46.82 C 358.60 47.46 357.75 48.74 357.33 49.39 C 354.50 47.73 350.73 46.41 347.90 48.82 C 343.81 51.63 344.64 58.78 349.46 60.31 C 352.36 61.63 355.18 59.87 357.92 59.02 C 358.38 59.50 359.29 60.45 359.75 60.93 C 356.03 63.89 350.68 65.15 346.42 62.56 C 340.93 59.76 339.81 51.42 344.44 47.32 Z" />
<path fill="#ed145b" opacity="1.00" d=" M 290.93 44.52 C 291.81 44.46 293.59 44.34 294.48 44.28 C 294.53 50.78 295.07 57.38 294.27 63.83 C 293.49 63.88 291.92 63.99 291.14 64.04 C 290.72 57.54 291.01 51.03 290.93 44.52 Z" />
<path fill="#ed145b" opacity="1.00" d=" M 317.17 51.78 C 318.21 45.83 325.48 42.48 330.77 45.23 C 334.08 46.68 334.74 50.56 335.68 53.65 C 330.83 55.67 325.34 54.05 320.23 54.62 C 321.09 57.43 322.90 60.35 326.12 60.66 C 329.02 61.72 331.69 58.51 334.45 59.74 C 335.12 62.93 330.99 63.30 328.76 63.87 C 322.04 65.27 315.00 58.56 317.17 51.78 M 320.27 52.10 C 324.16 52.21 328.06 52.21 331.96 52.11 C 330.90 50.10 329.80 47.10 327.03 47.25 C 323.71 46.64 321.76 49.72 320.27 52.10 Z" />
</g>
</svg>
